# MagicaVoxel @ Ephtracy

# material
mtllib GreenVat1.mtl
usemtl palette

# normals
vn -1 0 0
vn 1 0 0
vn 0 0 1
vn 0 0 -1
vn 0 -1 0
vn 0 1 0

# texcoords
vt 0.568359 0.5
vt 0.919922 0.5
vt 0.923828 0.5
vt 0.927734 0.5

# verts
v -16 0 16
v -16 0 -16
v -16 1 16
v -16 1 -16
v -8 1 4
v -8 1 2
v -8 1 -2
v -8 1 -4
v -8 2 4
v -8 2 2
v -8 2 -2
v -8 2 -4
v -7 1 9
v -7 1 8
v -7 1 4
v -7 1 2
v -7 1 -2
v -7 1 -4
v -7 1 -8
v -7 2 9
v -7 2 8
v -7 2 4
v -7 2 2
v -7 2 -2
v -7 2 -4
v -7 2 -8
v -6 1 11
v -6 1 9
v -6 2 9
v -6 10 9
v -6 10 3
v -6 13 11
v -6 13 3
v -5 2 9
v -5 2 8
v -5 3 9
v -5 3 8
v 3 1 11
v 3 1 8
v 3 2 8
v 3 3 9
v 3 3 8
v 3 10 9
v 3 10 3
v 3 13 11
v 3 13 3
v -3 1 11
v -3 1 8
v -3 2 8
v -3 3 9
v -3 3 8
v -3 10 9
v -3 10 3
v -3 13 11
v -3 13 3
v 5 2 9
v 5 2 8
v 5 3 9
v 5 3 8
v 6 1 11
v 6 1 9
v 6 2 9
v 6 10 9
v 6 10 3
v 6 13 11
v 6 13 3
v 7 1 9
v 7 1 8
v 7 1 4
v 7 1 2
v 7 1 -2
v 7 1 -4
v 7 1 -8
v 7 2 9
v 7 2 8
v 7 2 4
v 7 2 2
v 7 2 -2
v 7 2 -4
v 7 2 -8
v 8 1 4
v 8 1 2
v 8 1 -2
v 8 1 -4
v 8 2 4
v 8 2 2
v 8 2 -2
v 8 2 -4
v 16 0 16
v 16 0 -16
v 16 1 16
v 16 1 -16
v -16 0 16
v -16 1 16
v 16 0 16
v 16 1 16
v -6 1 11
v -6 13 11
v -3 1 11
v -3 13 11
v 3 1 11
v 3 13 11
v 6 1 11
v 6 13 11
v -7 1 9
v -7 2 9
v -6 1 9
v -6 2 9
v 6 1 9
v 6 2 9
v 7 1 9
v 7 2 9
v -3 1 8
v -3 2 8
v 3 1 8
v 3 2 8
v -8 1 4
v -8 2 4
v -7 1 4
v -7 2 4
v 7 1 4
v 7 2 4
v 8 1 4
v 8 2 4
v -8 1 -2
v -8 2 -2
v -7 1 -2
v -7 2 -2
v 7 1 -2
v 7 2 -2
v 8 1 -2
v 8 2 -2
v -6 2 9
v -6 10 9
v -5 2 9
v -5 3 9
v -3 3 9
v -3 10 9
v 3 3 9
v 3 10 9
v 5 2 9
v 5 3 9
v 6 2 9
v 6 10 9
v -5 2 8
v -5 3 8
v -3 2 8
v -3 3 8
v 3 2 8
v 3 3 8
v 5 2 8
v 5 3 8
v -6 10 3
v -6 13 3
v -3 10 3
v -3 13 3
v 3 10 3
v 3 13 3
v 6 10 3
v 6 13 3
v -8 1 2
v -8 2 2
v -7 1 2
v -7 2 2
v 7 1 2
v 7 2 2
v 8 1 2
v 8 2 2
v -8 1 -4
v -8 2 -4
v -7 1 -4
v -7 2 -4
v 7 1 -4
v 7 2 -4
v 8 1 -4
v 8 2 -4
v -7 1 -8
v -7 2 -8
v 7 1 -8
v 7 2 -8
v -16 0 -16
v -16 1 -16
v 16 0 -16
v 16 1 -16
v -16 0 16
v 16 0 16
v -7 0 8
v 7 0 8
v -9 0 4
v -7 0 4
v 7 0 4
v 9 0 4
v -9 0 2
v -7 0 2
v 7 0 2
v 9 0 2
v -9 0 -2
v -7 0 -2
v 7 0 -2
v 9 0 -2
v -9 0 -4
v -7 0 -4
v 7 0 -4
v 9 0 -4
v -7 0 -8
v 7 0 -8
v -16 0 -16
v 16 0 -16
v -6 10 9
v -3 10 9
v 3 10 9
v 6 10 9
v -6 10 3
v -3 10 3
v 3 10 3
v 6 10 3
v -16 1 16
v 16 1 16
v -6 1 11
v -3 1 11
v 3 1 11
v 6 1 11
v -7 1 9
v -6 1 9
v 6 1 9
v 7 1 9
v -7 1 8
v -3 1 8
v 3 1 8
v 7 1 8
v -9 1 4
v -8 1 4
v -7 1 4
v 7 1 4
v 8 1 4
v 9 1 4
v -9 1 2
v -8 1 2
v -7 1 2
v 7 1 2
v 8 1 2
v 9 1 2
v -9 1 -2
v -8 1 -2
v -7 1 -2
v 7 1 -2
v 8 1 -2
v 9 1 -2
v -9 1 -4
v -8 1 -4
v -7 1 -4
v 7 1 -4
v 8 1 -4
v 9 1 -4
v -7 1 -8
v 7 1 -8
v -16 1 -16
v 16 1 -16
v -7 2 9
v -6 2 9
v -5 2 9
v 5 2 9
v 6 2 9
v 7 2 9
v -7 2 8
v -5 2 8
v -3 2 8
v 3 2 8
v 5 2 8
v 7 2 8
v -6 2 7
v -3 2 7
v 3 2 7
v 6 2 7
v -3 2 6
v 3 2 6
v -8 2 4
v -7 2 4
v 7 2 4
v 8 2 4
v -8 2 2
v -7 2 2
v 7 2 2
v 8 2 2
v -8 2 -2
v -7 2 -2
v 7 2 -2
v 8 2 -2
v -8 2 -4
v -7 2 -4
v 7 2 -4
v 8 2 -4
v -3 2 -6
v 3 2 -6
v -6 2 -7
v -3 2 -7
v 3 2 -7
v 6 2 -7
v -7 2 -8
v 7 2 -8
v -5 3 9
v -3 3 9
v 3 3 9
v 5 3 9
v -5 3 8
v -3 3 8
v 3 3 8
v 5 3 8
v -6 13 11
v -3 13 11
v 3 13 11
v 6 13 11
v -6 13 3
v -3 13 3
v 3 13 3
v 6 13 3

# faces
f 3/3/1 2/3/1 1/3/1
f 4/3/1 2/3/1 3/3/1
f 9/2/1 6/2/1 5/2/1
f 10/2/1 6/2/1 9/2/1
f 11/2/1 8/2/1 7/2/1
f 12/2/1 8/2/1 11/2/1
f 20/4/1 14/4/1 13/4/1
f 21/2/1 15/2/1 14/2/1
f 21/4/1 14/4/1 20/4/1
f 22/2/1 15/2/1 21/2/1
f 23/2/1 17/2/1 16/2/1
f 24/2/1 17/2/1 23/2/1
f 25/2/1 19/2/1 18/2/1
f 26/2/1 19/2/1 25/2/1
f 29/4/1 28/4/1 27/4/1
f 30/4/1 29/4/1 27/4/1
f 32/4/1 30/4/1 27/4/1
f 32/4/1 31/4/1 30/4/1
f 33/4/1 31/4/1 32/4/1
f 36/4/1 35/4/1 34/4/1
f 37/4/1 35/4/1 36/4/1
f 40/4/1 39/4/1 38/4/1
f 41/4/1 40/4/1 38/4/1
f 42/4/1 40/4/1 41/4/1
f 43/4/1 41/4/1 38/4/1
f 45/4/1 43/4/1 38/4/1
f 45/4/1 44/4/1 43/4/1
f 46/4/1 44/4/1 45/4/1
f 47/4/2 48/4/2 49/4/2
f 47/4/2 49/4/2 50/4/2
f 50/4/2 49/4/2 51/4/2
f 47/4/2 50/4/2 52/4/2
f 47/4/2 52/4/2 54/4/2
f 52/4/2 53/4/2 54/4/2
f 54/4/2 53/4/2 55/4/2
f 56/4/2 57/4/2 58/4/2
f 58/4/2 57/4/2 59/4/2
f 60/4/2 61/4/2 62/4/2
f 60/4/2 62/4/2 63/4/2
f 60/4/2 63/4/2 65/4/2
f 63/4/2 64/4/2 65/4/2
f 65/4/2 64/4/2 66/4/2
f 67/4/2 68/4/2 74/4/2
f 68/2/2 69/2/2 75/2/2
f 74/4/2 68/4/2 75/4/2
f 75/2/2 69/2/2 76/2/2
f 70/2/2 71/2/2 77/2/2
f 77/2/2 71/2/2 78/2/2
f 72/2/2 73/2/2 79/2/2
f 79/2/2 73/2/2 80/2/2
f 81/2/2 82/2/2 85/2/2
f 85/2/2 82/2/2 86/2/2
f 83/2/2 84/2/2 87/2/2
f 87/2/2 84/2/2 88/2/2
f 89/3/2 90/3/2 91/3/2
f 91/3/2 90/3/2 92/3/2
f 95/3/3 94/3/3 93/3/3
f 96/3/3 94/3/3 95/3/3
f 99/4/3 98/4/3 97/4/3
f 100/4/3 98/4/3 99/4/3
f 103/4/3 102/4/3 101/4/3
f 104/4/3 102/4/3 103/4/3
f 107/4/3 106/4/3 105/4/3
f 108/4/3 106/4/3 107/4/3
f 111/4/3 110/4/3 109/4/3
f 112/4/3 110/4/3 111/4/3
f 115/2/3 114/2/3 113/2/3
f 116/2/3 114/2/3 115/2/3
f 119/2/3 118/2/3 117/2/3
f 120/2/3 118/2/3 119/2/3
f 123/2/3 122/2/3 121/2/3
f 124/2/3 122/2/3 123/2/3
f 127/2/3 126/2/3 125/2/3
f 128/2/3 126/2/3 127/2/3
f 131/2/3 130/2/3 129/2/3
f 132/2/3 130/2/3 131/2/3
f 133/4/4 134/4/4 135/4/4
f 135/4/4 134/4/4 136/4/4
f 136/4/4 134/4/4 137/4/4
f 137/4/4 134/4/4 138/4/4
f 139/4/4 140/4/4 142/4/4
f 141/4/4 142/4/4 143/4/4
f 142/4/4 140/4/4 144/4/4
f 143/4/4 142/4/4 144/4/4
f 145/4/4 146/4/4 147/4/4
f 147/4/4 146/4/4 148/4/4
f 149/4/4 150/4/4 151/4/4
f 151/4/4 150/4/4 152/4/4
f 153/4/4 154/4/4 155/4/4
f 155/4/4 154/4/4 156/4/4
f 157/4/4 158/4/4 159/4/4
f 159/4/4 158/4/4 160/4/4
f 161/2/4 162/2/4 163/2/4
f 163/2/4 162/2/4 164/2/4
f 165/2/4 166/2/4 167/2/4
f 167/2/4 166/2/4 168/2/4
f 169/2/4 170/2/4 171/2/4
f 171/2/4 170/2/4 172/2/4
f 173/2/4 174/2/4 175/2/4
f 175/2/4 174/2/4 176/2/4
f 177/2/4 178/2/4 179/2/4
f 179/2/4 178/2/4 180/2/4
f 181/3/4 182/3/4 183/3/4
f 183/3/4 182/3/4 184/3/4
f 187/3/5 186/3/5 185/3/5
f 188/3/5 186/3/5 187/3/5
f 189/3/5 187/3/5 185/3/5
f 190/2/5 188/2/5 187/2/5
f 190/3/5 187/3/5 189/3/5
f 191/3/5 186/3/5 188/3/5
f 191/2/5 188/2/5 190/2/5
f 192/3/5 186/3/5 191/3/5
f 193/2/5 190/2/5 189/2/5
f 193/3/5 189/3/5 185/3/5
f 193/2/5 192/2/5 191/2/5
f 193/2/5 191/2/5 190/2/5
f 194/2/5 192/2/5 193/2/5
f 195/2/5 192/2/5 194/2/5
f 196/3/5 186/3/5 192/3/5
f 196/2/5 192/2/5 195/2/5
f 197/3/5 193/3/5 185/3/5
f 197/3/5 194/3/5 193/3/5
f 198/2/5 195/2/5 194/2/5
f 198/3/5 194/3/5 197/3/5
f 199/3/5 196/3/5 195/3/5
f 199/2/5 195/2/5 198/2/5
f 200/3/5 186/3/5 196/3/5
f 200/3/5 196/3/5 199/3/5
f 201/3/5 197/3/5 185/3/5
f 201/2/5 199/2/5 198/2/5
f 201/2/5 200/2/5 199/2/5
f 201/2/5 198/2/5 197/2/5
f 202/2/5 200/2/5 201/2/5
f 203/2/5 200/2/5 202/2/5
f 204/3/5 186/3/5 200/3/5
f 204/2/5 200/2/5 203/2/5
f 205/2/5 203/2/5 202/2/5
f 205/3/5 202/3/5 201/3/5
f 206/3/5 204/3/5 203/3/5
f 206/2/5 203/2/5 205/2/5
f 207/3/5 201/3/5 185/3/5
f 207/3/5 205/3/5 201/3/5
f 207/3/5 206/3/5 205/3/5
f 208/3/5 186/3/5 204/3/5
f 208/3/5 206/3/5 207/3/5
f 208/3/5 204/3/5 206/3/5
f 213/4/5 210/4/5 209/4/5
f 214/4/5 210/4/5 213/4/5
f 215/4/5 212/4/5 211/4/5
f 216/4/5 212/4/5 215/4/5
f 217/3/6 218/3/6 219/3/6
f 219/3/6 218/3/6 220/3/6
f 220/3/6 218/3/6 221/3/6
f 221/3/6 218/3/6 222/3/6
f 217/3/6 219/3/6 223/3/6
f 223/3/6 219/3/6 224/3/6
f 222/3/6 218/3/6 225/3/6
f 225/3/6 218/3/6 226/3/6
f 217/3/6 223/3/6 227/3/6
f 220/3/6 221/3/6 228/3/6
f 228/3/6 221/3/6 229/3/6
f 226/3/6 218/3/6 230/3/6
f 217/3/6 227/3/6 231/3/6
f 231/3/6 227/3/6 232/3/6
f 232/3/6 227/3/6 233/3/6
f 230/3/6 218/3/6 234/3/6
f 234/3/6 218/3/6 235/3/6
f 235/3/6 218/3/6 236/3/6
f 217/3/6 231/3/6 237/3/6
f 231/2/6 232/2/6 237/2/6
f 237/2/6 232/2/6 238/2/6
f 235/2/6 236/2/6 241/2/6
f 236/3/6 218/3/6 242/3/6
f 241/2/6 236/2/6 242/2/6
f 238/3/6 239/3/6 243/3/6
f 217/3/6 237/3/6 243/3/6
f 237/3/6 238/3/6 243/3/6
f 243/3/6 239/3/6 244/3/6
f 244/3/6 239/3/6 245/3/6
f 240/3/6 241/3/6 246/3/6
f 241/3/6 242/3/6 246/3/6
f 246/3/6 242/3/6 247/3/6
f 242/3/6 218/3/6 248/3/6
f 247/3/6 242/3/6 248/3/6
f 243/2/6 244/2/6 249/2/6
f 217/3/6 243/3/6 249/3/6
f 249/2/6 244/2/6 250/2/6
f 247/2/6 248/2/6 253/2/6
f 248/3/6 218/3/6 254/3/6
f 253/2/6 248/2/6 254/2/6
f 250/3/6 251/3/6 255/3/6
f 249/3/6 250/3/6 255/3/6
f 252/3/6 253/3/6 256/3/6
f 253/3/6 254/3/6 256/3/6
f 249/3/6 255/3/6 257/3/6
f 255/3/6 256/3/6 257/3/6
f 217/3/6 249/3/6 257/3/6
f 256/3/6 254/3/6 258/3/6
f 257/3/6 256/3/6 258/3/6
f 254/3/6 218/3/6 258/3/6
f 259/4/6 260/4/6 265/4/6
f 260/4/6 261/4/6 265/4/6
f 265/4/6 261/4/6 266/4/6
f 263/4/6 264/4/6 269/4/6
f 262/4/6 263/4/6 269/4/6
f 269/4/6 264/4/6 270/4/6
f 267/2/6 268/2/6 271/2/6
f 266/2/6 267/2/6 271/2/6
f 269/2/6 270/2/6 271/2/6
f 268/2/6 269/2/6 271/2/6
f 265/2/6 266/2/6 271/2/6
f 271/2/6 270/2/6 272/2/6
f 272/2/6 270/2/6 273/2/6
f 273/2/6 270/2/6 274/2/6
f 271/1/6 272/1/6 275/1/6
f 272/2/6 273/2/6 275/2/6
f 273/1/6 274/1/6 276/1/6
f 275/2/6 273/2/6 276/2/6
f 265/2/6 271/2/6 278/2/6
f 274/2/6 270/2/6 279/2/6
f 277/2/6 278/2/6 281/2/6
f 278/2/6 271/2/6 282/2/6
f 281/2/6 278/2/6 282/2/6
f 274/2/6 279/2/6 283/2/6
f 279/2/6 280/2/6 283/2/6
f 283/2/6 280/2/6 284/2/6
f 282/2/6 271/2/6 286/2/6
f 274/2/6 283/2/6 287/2/6
f 285/2/6 286/2/6 289/2/6
f 286/2/6 271/2/6 290/2/6
f 289/2/6 286/2/6 290/2/6
f 287/2/6 288/2/6 291/2/6
f 274/2/6 287/2/6 291/2/6
f 291/2/6 288/2/6 292/2/6
f 271/1/6 275/1/6 293/1/6
f 275/1/6 276/1/6 293/1/6
f 276/1/6 274/1/6 294/1/6
f 293/1/6 276/1/6 294/1/6
f 290/2/6 271/2/6 295/2/6
f 271/1/6 293/1/6 295/1/6
f 293/2/6 294/2/6 296/2/6
f 295/1/6 293/1/6 296/1/6
f 294/1/6 274/1/6 297/1/6
f 296/2/6 294/2/6 297/2/6
f 274/2/6 291/2/6 298/2/6
f 297/1/6 274/1/6 298/1/6
f 295/2/6 296/2/6 299/2/6
f 290/2/6 295/2/6 299/2/6
f 297/2/6 298/2/6 299/2/6
f 296/2/6 297/2/6 299/2/6
f 298/2/6 291/2/6 300/2/6
f 299/2/6 298/2/6 300/2/6
f 301/4/6 302/4/6 305/4/6
f 305/4/6 302/4/6 306/4/6
f 303/4/6 304/4/6 307/4/6
f 307/4/6 304/4/6 308/4/6
f 309/4/6 310/4/6 313/4/6
f 313/4/6 310/4/6 314/4/6
f 311/4/6 312/4/6 315/4/6
f 315/4/6 312/4/6 316/4/6
